<svg xmlns="http://www.w3.org/2000/svg" width="1200" height="630" viewBox="0 0 1200 630">
  <rect width="1200" height="630" fill="#1c1c1f"/>
  <!-- Shield Logo -->
  <defs>
    <clipPath id="shield">
      <path d="M540 60h120c4 0 6 2 6 6v80c0 36-42 52-63 60-21-8-63-24-63-60V66c0-4 2-6 6-6Z"/>
    </clipPath>
  </defs>
  <g clip-path="url(#shield)">
    <rect x="534" y="60" width="132" height="150" fill="#21598F"/>
    <rect x="600" y="60" width="72" height="30" fill="#FFFFFF"/>
    <rect x="600" y="90" width="72" height="30" fill="#BF2626"/>
    <rect x="600" y="120" width="72" height="30" fill="#FFFFFF"/>
    <rect x="600" y="150" width="72" height="30" fill="#BF2626"/>
    <rect x="600" y="180" width="72" height="30" fill="#FFFFFF"/>
  </g>
  <path d="M567 110 L572 124 L587 124 L575 133 L579 147 L567 138 L555 147 L559 133 L547 124 L562 124Z" fill="#FFFFFF"/>
  <path d="M540 60h120c4 0 6 2 6 6v80c0 36-42 52-63 60-21-8-63-24-63-60V66c0-4 2-6 6-6Z" fill="none" stroke="#6699D9" stroke-width="1.5" opacity="0.3"/>
  <!-- Title -->
  <text x="600" y="310" font-family="-apple-system,BlinkMacSystemFont,'Segoe UI',Roboto,sans-serif" font-size="72" font-weight="800" fill="rgb(102,153,217)" text-anchor="middle">Texas Votes</text>
  <!-- Subtitle -->
  <text x="600" y="380" font-family="-apple-system,BlinkMacSystemFont,'Segoe UI',Roboto,sans-serif" font-size="32" fill="rgb(237,237,240)" text-anchor="middle">Your personalized Texas voting guide</text>
  <!-- Badge -->
  <rect x="420" y="420" width="360" height="44" rx="22" fill="rgba(102,153,217,0.15)"/>
  <text x="600" y="449" font-family="-apple-system,BlinkMacSystemFont,'Segoe UI',Roboto,sans-serif" font-size="22" font-weight="600" fill="rgb(102,153,217)" text-anchor="middle">Texas Primary &#x2014; March 3, 2026</text>
  <!-- URL -->
  <text x="600" y="560" font-family="-apple-system,BlinkMacSystemFont,'Segoe UI',Roboto,sans-serif" font-size="24" fill="rgb(153,153,166)" text-anchor="middle">txvotes.app</text>
</svg>
